# xmcd
#
# Track frame offsets: 
#        150
#        16626
#        29566
#        39845
#        52274
#        62868
#        79063
#        90839
#        101801
#        115167
#        131268
#        145119
#        157558
#        172991
#
# Disc length: 2475 seconds
#
# Revision: 0
# Processed by: cddbd v1.5.2PL0 Copyright (c) Steve Scherf et al.
# Submitted via: ExactAudioCopy v0.95a4
#
DISCID=a109a90e
DTITLE=JON HOCKENBURY - BLUES and RAGTIME VOLUME ONE
DYEAR=2001
DGENRE=Blues
TTITLE0=DUST MY BROOM
TTITLE1=NOBODY KNOWS YOU WHEN YOU'RE DOWN AND OUT
TTITLE2=STOP BREAKING DOWN
TTITLE3=PICTURE ON THE WALL
TTITLE4=ONE DIME
TTITLE5=KINDHEARTED WOMAN
TTITLE6=DOWNHEARTED BLUES
TTITLE7=MALTED MILK
TTITLE8=COME ON IN MY KITCHEN
TTITLE9=THAT'LL NEVER HAPPEN NO MORE
TTITLE10=KNOCKING ON WINDOWS
TTITLE11=ST JAMES INFIRMARY
TTITLE12=HARD PUSHING PAPA
TTITLE13=SKEEDLE LOO DOO
EXTD=
EXTT0=
EXTT1=
EXTT2=
EXTT3=
EXTT4=
EXTT5=
EXTT6=
EXTT7=
EXTT8=
EXTT9=
EXTT10=
EXTT11=
EXTT12=
EXTT13=
PLAYORDER=
